<?xml version="1.0" encoding="utf-8"?>
<!-- Generator: Adobe Illustrator 22.0.1, SVG Export Plug-In . SVG Version: 6.00 Build 0)  -->
<svg version="1.1" id="Calque_1" xmlns="http://www.w3.org/2000/svg" xmlns:xlink="http://www.w3.org/1999/xlink" x="0px" y="0px"
	 viewBox="0 0 24 24" style="enable-background:new 0 0 24 24;" xml:space="preserve">
<style type="text/css">
	.st0{fill:#FFFFFF;}
</style>
<title>Fichier 1wings</title>
<title>Fichier 1back</title>
<g id="Calque_2_1_">
	<g id="Calque_1-2">
		<path d="M12.3,21.5c-1.7,0-3.3,0-5,0c-1.2,0-2.3-0.5-3.2-1.4c-0.7-0.7-1.1-1.6-1.3-2.6c0-0.2,0-0.4,0-0.7c0-3.2,0-6.4,0-9.6
			c0-2,1.2-3.7,3-4.4c0.5-0.2,1.1-0.3,1.6-0.3c3.2,0,6.5,0,9.7,0c2.2,0,4,1.5,4.5,3.6c0.1,0.3,0.1,0.7,0.1,1.1c0,3.2,0,6.4,0,9.6
			c0,2.2-1.5,4-3.6,4.6c-0.4,0.1-0.7,0.1-1.1,0.1C15.5,21.5,13.9,21.5,12.3,21.5L12.3,21.5z M13.1,14.8c0,0,0-0.1,0.1-0.1
			c1-1,2.1-2.1,3.1-3.1c0.1-0.1,0.1-0.1,0.2-0.1c0.3-0.1,0.5-0.1,0.7,0.1c1.1,0.9,2.2,1.8,3.3,2.7c0,0,0,0,0.1,0.1v-0.1
			c0-2.4,0-4.7,0-7.1c0-1-0.4-1.8-1.1-2.5c-0.7-0.7-1.5-1-2.4-1c-3.2,0-6.4,0-9.6,0C7,3.7,6.5,3.8,6,4.1C4.7,4.8,4.1,5.8,4,7.2
			c0,2,0,4.1,0,6.1v0.1l0.1-0.1c1.1-1.1,2.2-2.2,3.3-3.3c0.1,0,0.2-0.1,0.4-0.1c0.2,0,0.4,0.1,0.6,0.3C9.9,11.7,11.5,13.2,13.1,14.8
			C13,14.8,13,14.8,13.1,14.8L13.1,14.8z M16.8,12.8c-0.3,0.3-0.6,0.6-0.9,0.9c-0.8,0.8-1.6,1.6-2.4,2.4c-0.1,0.1-0.3,0.2-0.5,0.2
			s-0.3-0.1-0.5-0.2C11,14.5,9.5,13,8,11.5c0,0,0-0.1-0.1-0.1l-0.1,0.1c-1.2,1.2-2.5,2.5-3.7,3.7L4,15.3c0,0.5,0,1,0,1.5
			c0,0.3,0,0.5,0.1,0.8c0.3,1.5,1.7,2.7,3.3,2.7c3.3,0,6.5,0,9.8,0c0.5,0,1-0.1,1.4-0.3c1.1-0.6,1.8-1.5,2-2.7c0-0.4,0-0.8,0-1.1
			c0-0.1,0-0.1-0.1-0.2c-0.8-0.7-1.7-1.4-2.5-2.1L16.8,12.8z"/>
		<path d="M14.9,5.5c1.4,0,2.5,1.1,2.4,2.5c0,1.4-1.1,2.4-2.5,2.4s-2.4-1.1-2.4-2.5C12.5,6.6,13.6,5.5,14.9,5.5z M13.7,7.9
			c0,0.7,0.6,1.2,1.2,1.2c0.7,0,1.2-0.6,1.2-1.2c0-0.7-0.6-1.2-1.2-1.2l0,0C14.2,6.7,13.7,7.3,13.7,7.9z"/>
		<path class="st0" d="M13.7,7.9c0-0.7,0.6-1.2,1.2-1.2c0.7,0,1.2,0.5,1.2,1.2l0,0c0,0.7-0.6,1.2-1.2,1.2
			C14.2,9.2,13.7,8.6,13.7,7.9z"/>
	</g>
</g>
</svg>
