<?xml version="1.0" encoding="utf-8"?>
<!-- Generator: Adobe Illustrator 22.0.1, SVG Export Plug-In . SVG Version: 6.00 Build 0)  -->
<svg version="1.1" id="Calque_1" xmlns="http://www.w3.org/2000/svg" xmlns:xlink="http://www.w3.org/1999/xlink" x="0px" y="0px"
	 viewBox="0 0 24 24" style="enable-background:new 0 0 24 24;" xml:space="preserve">
<style type="text/css">
	.st0{fill:#FFFFFF;}
</style>
<title>Fichier 1wings</title>
<title>Fichier 1back</title>
<title>Fichier 1eyes</title>
<g id="Calque_2_1_">
	<g id="Calque_1-2">
		<path d="M2.8,12.2c0.3-0.5,0.7-0.8,1.1-1.2c1.3-1.2,2.7-2.3,4.4-3c1.4-0.6,2.9-1,4.4-0.9c1.3,0.1,2.6,0.5,3.8,1.1
			c1.6,0.8,3,1.9,4.3,3.1c0.1,0.1,0.3,0.3,0.4,0.4c0.1,0.1,0.2,0.3,0.4,0.5v0.4c-0.3,0.5-0.7,0.8-1.1,1.2c-1.4,1.3-2.9,2.4-4.6,3.1
			c-1.3,0.6-2.7,0.9-4.2,0.8c-1.3-0.1-2.5-0.5-3.7-1c-1.6-0.8-3.1-1.9-4.3-3.2c-0.1-0.1-0.3-0.3-0.4-0.4c-0.1-0.2-0.2-0.3-0.4-0.5
			V12.2z M9.7,15.7c-1.1-0.8-1.8-1.9-1.8-3.3c0-1.4,0.7-2.5,1.8-3.3C7.8,9.8,6.2,11,4.7,12.4C6.2,13.9,7.8,15.1,9.7,15.7z M14.7,9.1
			c1.1,0.8,1.8,1.9,1.8,3.3c0,1.4-0.7,2.5-1.8,3.3c1.9-0.7,3.6-1.9,5.1-3.3C18.2,11,16.6,9.8,14.7,9.1L14.7,9.1z M10.3,9.6
			c-0.8,0-1.5,0.7-1.5,1.5c0,0.8,0.7,1.5,1.5,1.5c0.8,0,1.5-0.7,1.5-1.5C11.8,10.3,11.1,9.6,10.3,9.6z"/>
		<path class="st0" d="M9.7,15.7c-1.9-0.7-3.6-1.9-5.1-3.3C6.2,11,7.8,9.8,9.7,9.1C8.6,10,7.9,11,7.9,12.4
			C7.9,13.9,8.6,14.9,9.7,15.7z"/>
		<path class="st0" d="M14.7,9.1c1.9,0.7,3.6,1.9,5.1,3.3c-1.5,1.4-3.1,2.6-5.1,3.3c1.1-0.8,1.8-1.9,1.8-3.3
			C16.5,11,15.8,10,14.7,9.1z"/>
		<path class="st0" d="M10.3,9.6c0.8,0,1.5,0.7,1.5,1.5c0,0.8-0.7,1.5-1.5,1.5c-0.8,0-1.5-0.7-1.5-1.5C8.8,10.3,9.5,9.6,10.3,9.6z"
			/>
	</g>
</g>
</svg>
