<?xml version="1.0" encoding="utf-8"?>
<!-- Generator: Adobe Illustrator 22.0.1, SVG Export Plug-In . SVG Version: 6.00 Build 0)  -->
<svg version="1.1" id="Calque_1" xmlns="http://www.w3.org/2000/svg" xmlns:xlink="http://www.w3.org/1999/xlink" x="0px" y="0px"
	 viewBox="0 0 24 24" style="enable-background:new 0 0 24 24;" xml:space="preserve">
<title>Fichier 1wings</title>
<title>Fichier 1back</title>
<g>
	<g>
		<path d="M20.7,7c-0.1-1-0.9-2-1.9-2.4c-0.7-0.2-0.8-0.8-0.9-1c0.2-0.2,0.9-0.3,1.6-0.4c0.2,0,0.3-0.1,0.3-0.2
			c0.1-0.1,0-0.3-0.1-0.4c-2.2-2.1-7.3-2-7.5-2c-0.2,0-5.9-0.2-7.6,3.6c0,0.1-1.2,2,0.4,6.7l0,1.9c0,2.6,0.3,5.2,2.2,7
			c0.3,0.3,0.6,0.5,1,0.8V23c0,0.2,0.2,0.4,0.4,0.4c0.2,0,0.4-0.2,0.4-0.4v-1.9c0,0,0.1,0.1,0.1,0.1l0.4,0.2
			c0.2,0.1,0.3,0.2,0.5,0.3c0.6,0.4,1.3,0.9,2.2,0.9c0,0,0,0,0,0c0,0,0,0,0,0c0.9,0,1.6-0.5,2.2-0.9c0.1-0.1,0.3-0.2,0.5-0.3
			l0.4-0.2c0,0,0.1-0.1,0.1-0.1V23c0,0.2,0.2,0.4,0.4,0.4c0.2,0,0.4-0.2,0.4-0.4v-2.5c0.3-0.2,0.7-0.5,1-0.8c2-1.8,2.2-4.4,2.2-7
			v-1.1C20.5,9.9,20.9,8.3,20.7,7z M18.7,11.6v1.2c0,2.4-0.2,4.9-2,6.5c-0.3,0.3-0.7,0.5-1,0.8c0,0,0,0,0,0
			c-0.3,0.2-0.5,0.3-0.8,0.5l-0.4,0.2c-0.2,0.1-0.3,0.2-0.5,0.3c-0.6,0.4-1.1,0.8-1.8,0.8c-0.7,0-1.2-0.4-1.8-0.8
			c-0.2-0.1-0.3-0.2-0.5-0.3l-0.4-0.2c-0.6-0.4-1.3-0.8-1.8-1.3c-1.8-1.6-2-4.2-2-6.4l0-1.9v0l0-1.5c0-0.3,0.1-0.5,0.2-0.7
			c0-0.1,0.1-0.2,0.2-0.3c0,0,0,0,0.1-0.1c0-0.1,0.1-0.1,0.1-0.2c0,0,0,0,0.1-0.1C6.5,8,6.6,8,6.7,7.9c0,0,0,0,0,0
			c0.1-0.1,0.2-0.1,0.3-0.1c0,0,0.1,0,0.1,0c0.1,0,0.1,0,0.2-0.1c0,0,0.1,0,0.1,0c0.1,0,0.2,0,0.3,0c0,0,0,0,0,0c0.1,0,0.2,0,0.3,0
			c0,0,0.1,0,0.1,0c0.1,0,0.2,0,0.4,0.1C9,8,10.2,8.2,12.3,8.2c2.1,0,3.3-0.2,3.9-0.5c1-0.3,2,0.1,2.4,0.9c0.1,0.2,0.2,0.5,0.2,0.7
			L18.7,11.6L18.7,11.6z"/>
	</g>
</g>
</svg>
