<?xml version="1.0" encoding="utf-8"?>
<!-- Generator: Adobe Illustrator 22.0.1, SVG Export Plug-In . SVG Version: 6.00 Build 0)  -->
<svg version="1.1" id="Calque_1" xmlns="http://www.w3.org/2000/svg" xmlns:xlink="http://www.w3.org/1999/xlink" x="0px" y="0px"
	 viewBox="0 0 24 24" style="enable-background:new 0 0 24 24;" xml:space="preserve">
<style type="text/css">
	.st0{fill:none;}
</style>
<g id="Bounding_Boxes">
	<path class="st0" d="M0,0h24v24H0V0z"/>
</g>
<g id="Calque_2_1_">
	<g id="Calque_1-2">
		<path d="M20.5,10.5c-0.5-0.6-1.1-1-1.8-1c-0.6,0-0.9-0.5-0.9-1.1s0.4-1.1,0.9-1c2.2,0.2,3.9,2.9,4.1,6.3c0,0.8-0.3,1.4-0.7,1.4
			c-0.4,0-0.7-0.5-0.7-1.3c0-0.5-0.1-0.9-0.1-1.5c-0.1,0-0.1,0.1-0.2,0.1c-3.1,3.1-6.6,4-10.3,3.6c-2.4-0.2-4.7-1.1-6.9-2.9
			c-0.6-0.5-1.1-1.1-1.6-1.7C2,11,2.1,10.3,2.3,9.9C2.6,9.4,3,9.4,3.3,9.8c0,0,0,0,0,0C5,12,7.1,13.1,9.2,13.6
			c3,0.7,6.1,0.4,8.9-1.3C18.9,11.8,19.7,11.1,20.5,10.5z"/>
	</g>
</g>
</svg>
