<?xml version="1.0" encoding="utf-8"?>
<!-- Generator: Adobe Illustrator 22.0.1, SVG Export Plug-In . SVG Version: 6.00 Build 0)  -->
<svg version="1.1" id="Calque_1" xmlns="http://www.w3.org/2000/svg" xmlns:xlink="http://www.w3.org/1999/xlink" x="0px" y="0px"
	 viewBox="0 0 24 24" style="enable-background:new 0 0 24 24;" xml:space="preserve">
<title>Fichier 1wings</title>
<title>Fichier 1back</title>
<g>
	<path d="M18.7,17.8c-0.5-2-2.5-2.9-4-3.2c-0.4-0.1-0.7,0.3-0.7,0.6c0,0.3,0.2,0.5,0.4,0.6c0.8,0.1,2.6,0.5,3.2,2.2
		c0.4,0.9,0.1,1.4-0.6,1.8c-0.4-0.2-0.9-0.4-1.3-0.4c-1.2,0-2,1-2.3,1.5c-0.9,0.1-1.9,0-2.7-0.2c-0.8-0.2-1.9-0.6-2.5-1.7
		c-0.5-0.9-0.6-2-0.3-3.3c0.6-2.1,1.8-4,3-5.9c0.4-0.7,0.9-1.4,1.3-2.2c0.9-1.5,1.8-3.3,2-5.2c0-0.2-0.1-0.3-0.1-0.4
		c-0.1-0.1-0.2-0.2-0.4-0.2c-0.3,0-0.6,0.2-0.6,0.6c-0.1,1.3-0.7,2.6-1.4,3.8c-0.5,1-1.2,2-1.8,3C9.6,9.6,9.4,10,9.2,10.3l-0.2,0.3
		c-1.3,2.1-2.8,4.7-2.5,7.4c0.3,2.6,2.5,4.1,5.8,4.1c1.8,0,3.8-0.5,5.1-1.3C18.7,20.1,19.1,19.1,18.7,17.8z"/>
</g>
</svg>
