<?xml version="1.0" encoding="utf-8"?>
<!-- Generator: Adobe Illustrator 22.0.1, SVG Export Plug-In . SVG Version: 6.00 Build 0)  -->
<svg version="1.1" id="Calque_1" xmlns="http://www.w3.org/2000/svg" xmlns:xlink="http://www.w3.org/1999/xlink" x="0px" y="0px"
	 viewBox="0 0 24 24" style="enable-background:new 0 0 24 24;" xml:space="preserve">
<title>Fichier 1wings</title>
<title>Fichier 1back</title>
<g>
	<g>
		<polygon points="13.3,10.6 15.7,7.3 12.8,4.6 8.7,6 8.8,9.8 		"/>
		<polygon points="11.7,17.5 13.9,19.7 17.8,18.1 18.4,14.8 14.6,14.3 		"/>
		<path d="M4,15.1L4,15.1c1.4,3.3,4.6,5.6,8.4,5.6c5,0,9-3.9,9-8.8c0-4.9-4-8.8-9-8.8c-5,0-9,3.9-9,8.8C3.4,13.1,3.6,14.1,4,15.1
			L4,15.1z M3.9,12c0-1.1,0.2-2.2,0.6-3.1l2.1-2.6l0.6-0.9c1.4-1.1,3.3-1.7,5.2-1.7c0,0,0.1,0,0.1,0l1,0.3l2.1,0.3
			c1.3,0.5,2.5,1.4,3.4,2.5l-0.3,1.5l1.4,3.8l0.9,0.2c-0.1,4.5-3.9,8.1-8.5,8.1c-2.3,0-4.4-0.9-5.9-2.3l1.7-1.4l-1.6-4l-2.5-0.8
			L4,13.6C3.9,13.1,3.9,12.5,3.9,12z"/>
	</g>
</g>
</svg>
