<?xml version="1.0" encoding="utf-8"?>
<!-- Generator: Adobe Illustrator 22.0.1, SVG Export Plug-In . SVG Version: 6.00 Build 0)  -->
<svg version="1.1" id="Calque_1" xmlns="http://www.w3.org/2000/svg" xmlns:xlink="http://www.w3.org/1999/xlink" x="0px" y="0px"
	 viewBox="0 0 24 24" style="enable-background:new 0 0 24 24;" xml:space="preserve">
<title>Fichier 1wings</title>
<title>Fichier 1back</title>
<g>
	<g>
		<path d="M14.6,11.7c0.4,0,0.8-0.3,0.7-0.7c0-0.2-0.1-0.3-0.3-0.4c0.4-0.4,0.6-0.6,0.6-0.6h-1.4c-0.5,0-0.9,0.4-0.9,0.8v1.2
			c0.2-0.2,0.4-0.4,0.6-0.6C14.2,11.7,14.4,11.8,14.6,11.7z"/>
		<path d="M9.2,11.1c0,0.3,0.3,0.6,0.7,0.7c0.2,0,0.4,0,0.6-0.1c0.2,0.2,0.4,0.4,0.6,0.6V11c0-0.5-0.4-0.8-0.9-0.8H8.8
			c0,0,0.2,0.2,0.6,0.6C9.3,10.8,9.2,10.9,9.2,11.1z"/>
		<path d="M3.8,7.9C3.3,9,3.1,10.3,3.1,11.8l0,0.5L4,12.1c0,0.4,0,1.1,0.2,1.8c0.2,0.8,0.4,1.5,0.7,2.2c0.4,0.8,1,1.5,1.7,2.1
			l0.5,0.4l0.3-0.5c0.2,0.3,0.5,0.7,0.9,1.1c0.8,0.9,2.2,2,3.8,2.6l0.2,0.1l0.2-0.1c1.7-0.6,3-1.7,3.8-2.6c0.4-0.4,0.7-0.8,0.9-1.1
			l0.3,0.5l0.5-0.4c0.7-0.6,1.3-1.3,1.7-2.1c0.3-0.6,0.6-1.4,0.7-2.2c0.1-0.7,0.2-1.4,0.2-1.8l0.8,0.2l0-0.5
			c0.1-1.5-0.1-2.8-0.7-3.9c-0.4-0.9-1.1-1.7-1.9-2.3c-0.6-0.4-1.2-0.7-1.7-0.9l1.4-0.6l-0.8-0.4c-0.9-0.5-1.9-0.7-3.2-0.7
			c-1,0-1.9,0.2-2.2,0.3c-0.3-0.1-1.2-0.3-2.2-0.3c-1.2,0-2.3,0.2-3.2,0.7L6.1,4.1l1.4,0.6C7,4.8,6.4,5.1,5.8,5.6
			C4.9,6.2,4.3,7,3.8,7.9z M4.1,11.2c0-0.6,0.1-1.2,0.2-1.8c0.6,0,1.1,0.1,1.5,0.4c0.3,0.2,0.5,0.4,0.5,0.5
			c-0.1,0.6-0.2,1.1-0.2,1.1l0,0.2l0.6,0.6c-0.1,0-0.2,0.1-0.3,0.1c-0.4,0.2-0.9,0.4-1.4,1c-0.1-1-0.1-1.7-0.1-1.7L5,11L4.1,11.2z
			 M8.7,8.2c0.8-0.6,2-0.8,3.5-0.5l0.1,0l0.1,0c1.5-0.3,2.7-0.1,3.5,0.5c1.3,0.9,1.5,2.6,1.5,3.1L15.7,13c-0.4-0.5-0.7-0.8-0.7-0.9
			l-0.7,0.6c0,0,0.3,0.3,0.6,0.7c0.3,0.4,0.6,1,0.5,1.6c0,0.4-0.2,0.8-0.6,1.1l-0.2-0.1l0,0l-2.2-0.7c0-0.3,0.1-0.6,0.3-0.8
			c0.4-0.2,1-0.6,0-0.7c0,0-0.2,0.1-0.5,0.1c-0.3,0-0.5-0.1-0.5-0.1c-1,0.1-0.4,0.4,0,0.7c0.2,0.1,0.3,0.5,0.3,0.8l-2.2,0.7l0,0
			l-0.2,0.1c-0.4-0.3-0.6-0.7-0.6-1.1c-0.1-1.1,1.1-2.3,1.2-2.3l-0.3-0.3l0.3,0.3l-0.7-0.6c0,0-0.4,0.4-0.7,0.9l-1.7-1.7
			C7.2,10.8,7.4,9.1,8.7,8.2z M13.8,17.3C13.8,17.3,13.8,17.3,13.8,17.3L13.8,17.3c-0.2,0-0.4,0-0.5-0.1c-0.3-0.1-0.6-0.2-1-0.2
			s-0.7,0.1-1,0.2c-0.2,0-0.3,0.1-0.5,0.1c0,0-0.1,0-0.1,0c-0.1-0.1-0.1-0.3,0-0.6l1.5-0.5l1.5,0.5C13.9,17,13.9,17.2,13.8,17.3z
			 M18.8,15.7c-0.3,0.5-0.6,1-1,1.4l-0.5-0.8L16.8,17c0,0-0.5,0.8-1.3,1.6c-0.7,0.7-1.9,1.7-3.3,2.3c-1.4-0.5-2.5-1.5-3.3-2.3
			C8.2,17.7,7.7,17,7.7,17l-0.4-0.7l-0.5,0.8c-0.4-0.4-0.8-0.9-1-1.4c-0.2-0.3-0.3-0.7-0.5-1.1C5.9,13.2,7,13,7.5,13l0.9,0.9
			c-0.2,0.4-0.3,0.8-0.2,1.2c0,0.7,0.4,1.4,1.2,1.9l0.2,0.2l0.3-0.1c0,0.3,0.1,0.7,0.5,0.9c0.2,0.1,0.4,0.2,0.6,0.2
			c0.2,0,0.5-0.1,0.7-0.1c0.2-0.1,0.5-0.1,0.7-0.1c0.2,0,0.5,0.1,0.7,0.1c0.2,0.1,0.5,0.1,0.7,0.1l0,0c0.2,0,0.4-0.1,0.6-0.2
			c0.4-0.2,0.5-0.6,0.5-0.9l0.3,0.1l0.2-0.2c0.7-0.5,1.1-1.2,1.2-1.9c0-0.4-0.1-0.9-0.2-1.2l0.9-0.8c0.2,0,0.4,0,0.7,0.2
			c0.7,0.2,1.1,0.7,1.5,1.5C19.1,15,19,15.4,18.8,15.7z M19.5,11l0.1,0.6c0,0,0.1,0.7-0.1,1.7c-0.5-0.5-1-0.8-1.4-1
			c-0.1,0-0.2-0.1-0.3-0.1l0.6-0.6l0-0.2c0,0,0-0.5-0.2-1.1c0.1-0.2,0.6-1,2-0.9c0.1,0.6,0.2,1.2,0.2,1.8L19.5,11z M19.8,8.2
			c0,0.1,0.1,0.2,0.1,0.3c-0.9,0-1.5,0.3-1.8,0.6C18,9.2,18,9.2,17.9,9.3c-0.3-0.6-0.7-1.3-1.4-1.8c0,0,0,0-0.1,0
			c0.1-0.4,0.4-1,1.5-1.3c0.1,0.1,0.1,0.1,0.2,0.2C18.9,6.8,19.4,7.5,19.8,8.2z M8.3,4C8.8,3.9,9.4,3.8,10,3.8
			c1.2,0,2.1,0.3,2.1,0.3l0.1,0l0.1,0c0,0,0.9-0.3,2.1-0.3c0.6,0,1.2,0.1,1.7,0.2l-2.1,0.9l1.5,0.3c0,0,0.6,0.1,1.3,0.4
			c-0.6,0.3-1,0.7-1.2,1.1c-0.1,0.1-0.1,0.2-0.2,0.3c-0.9-0.4-2-0.4-3.3-0.2C11,6.5,9.9,6.6,9,7c0-0.1-0.1-0.2-0.2-0.3
			C8.6,6.3,8.2,5.9,7.6,5.6c0.7-0.3,1.3-0.4,1.3-0.4l1.5-0.3L8.3,4z M6.4,6.3c0.1-0.1,0.2-0.1,0.3-0.2c0.6,0.2,1,0.5,1.3,0.9
			C8,7.2,8.1,7.3,8.1,7.4c0,0,0,0-0.1,0C7.4,8,6.9,8.7,6.6,9.3C6.6,9.2,6.5,9.2,6.4,9.1c-0.4-0.3-1-0.6-1.8-0.6
			c0-0.1,0.1-0.2,0.1-0.3C5.1,7.5,5.7,6.8,6.4,6.3z"/>
	</g>
</g>
</svg>
