<?xml version="1.0" encoding="utf-8"?>
<!-- Generator: Adobe Illustrator 22.0.1, SVG Export Plug-In . SVG Version: 6.00 Build 0)  -->
<svg version="1.1" id="Calque_1" xmlns="http://www.w3.org/2000/svg" xmlns:xlink="http://www.w3.org/1999/xlink" x="0px" y="0px"
	 viewBox="0 0 24 24" style="enable-background:new 0 0 24 24;" xml:space="preserve">
<style type="text/css">
	.st0{fill:none;}
	.st1{fill:#FFFFFF;}
</style>
<g id="Bounding_Boxes">
	<path class="st0" d="M0,0h24v24H0V0z"/>
</g>
<g id="Calque_2_2_">
	<g id="Calque_1-2_1_">
		<path d="M21.7,2.8c-0.2,0.1-0.3,0.2-0.4,0.3c-2.2,1.3-3.1,3.2-2.9,5.5c0.1,1,0.2,2,0.2,3c0.3,3.6-2.2,7.3-5.7,8.2
			c-1,0.3-2,0.4-3,0.5c-1.4,0.2-2.8,0.5-4.1,0.8c-0.2,0-0.4,0.1-0.6,0.1c-1,0.1-1.3-0.1-1.6-1c-0.4-1-0.2-1.5,0.8-1.8
			c1.7-0.5,2.8-1.7,3.4-3.2c0.6-1.6,1-3.3,1.5-5C9.5,9.2,9.7,8.1,10.1,7c1-2.6,3-4,5.9-4.2C17.9,2.7,19.7,2.8,21.7,2.8z M14.8,9.6
			l0.2,0.1c0.6-0.6,1.2-1.1,1.8-1.7c0.2-0.2,0.4-0.3,0.7-0.5c-0.1-1.7,0.9-3,2.3-4.1c-2.4-0.3-6.9,0.5-7.7,2l0.4,0.3l-1,1.7L13.3,7
			c0,0.5-0.1,0.8-0.1,1.2L14,7.6l0.2,0.6l0.5-0.3V9.6z"/>
		<path class="st1" d="M14.8,9.6V7.9l-0.5,0.3L14,7.6l-0.8,0.6c0-0.4,0.1-0.7,0.1-1.2l-1.8,0.5l1-1.7l-0.4-0.3
			c0.8-1.5,5.2-2.3,7.7-2c-1.4,1.1-2.4,2.4-2.3,4.1c-0.3,0.2-0.5,0.3-0.7,0.5c-0.6,0.6-1.2,1.1-1.8,1.7L14.8,9.6z"/>
	</g>
</g>
</svg>
