<?xml version="1.0" encoding="utf-8"?>
<!-- Generator: Adobe Illustrator 22.0.1, SVG Export Plug-In . SVG Version: 6.00 Build 0)  -->
<svg version="1.1" id="Calque_1" xmlns="http://www.w3.org/2000/svg" xmlns:xlink="http://www.w3.org/1999/xlink" x="0px" y="0px"
	 viewBox="0 0 24 24" style="enable-background:new 0 0 24 24;" xml:space="preserve">
<title>Fichier 1wings</title>
<g id="Calque_2_1_">
	<g id="Calque_1-2">
		<path d="M8.8,21.8c-1-0.3-1.7-1-2.3-2c0,0.3,0,0.5,0.1,0.8c0,0.3,0.1,0.5,0.1,0.9c-0.7-0.2-1-0.7-1.2-1.4c-0.3-1-0.3-2-0.3-3.1
			c0-0.4,0-0.8,0-1.2c-0.1-1.3,0.3-2.1,1.3-2.6c3.1-1.6,5.8-3.9,8.2-6.6c1-1.2,1.9-2.6,2.9-3.8c0.1-0.1,0.1-0.2,0.2-0.4h0.1
			c0.8,1.3,0.7,2.5,0,3.8c-0.6,1.1-1.4,2.1-2.3,2.9c-1.4,1.2-2.9,2.3-4.4,3.5c-0.1,0.1-0.2,0.2-0.4,0.3c3.2-1.2,6-3.1,8.6-5.4
			c0.2,1.5-0.3,2.7-1.3,3.7c-1.3,1.3-2.8,2-4.4,2.6c-0.9,0.3-1.8,0.6-2.7,0.9c2.8-0.3,5.4-1.1,7.9-2.4c0,1.1-0.5,1.9-1.2,2.5
			c-0.9,0.7-1.9,1-2.9,1.3C14.2,15.8,13.6,16,13,16c-0.6,0.1-1.2,0.1-1.8,0.2l0,0.2l6.1-0.2c-0.4,0.9-1.1,1.4-1.9,1.6
			c-1.3,0.3-2.6,0.2-3.9,0c-0.2,0-0.4,0-0.6,0l0,0.2l4.1,1.3c-0.4,0.5-1,0.8-1.6,0.8c-1.1,0.1-2.1-0.3-3.1-0.8
			c-0.3-0.1-0.5-0.3-0.8-0.4l0,0.1l2.5,2.1c-1.8,0.5-3.1-0.4-4-1.9l-0.1,0.1l1,2.2L8.8,21.8z"/>
	</g>
</g>
</svg>
